<mxfile host="app.diagrams.net" modified="2023-06-16T02:46:17.218Z" agent="Mozilla/5.0 (Windows NT 10.0; Win64; x64) AppleWebKit/537.36 (KHTML, like Gecko) Chrome/114.0.0.0 Safari/537.36" etag="lVcTXTkVZiEoz_4qLE9k" version="21.3.8" type="device">
  <diagram name="Page-1" id="qV1BDm43p2JUHh2pjWyU">
    <mxGraphModel dx="1433" dy="1001" grid="0" gridSize="10" guides="1" tooltips="1" connect="1" arrows="1" fold="1" page="0" pageScale="1" pageWidth="850" pageHeight="1100" math="0" shadow="0">
      <root>
        <mxCell id="0" />
        <mxCell id="1" parent="0" />
        <mxCell id="MgpkwVo8_xVV5x1iAArD-15" value="" style="edgeStyle=orthogonalEdgeStyle;rounded=0;orthogonalLoop=1;jettySize=auto;html=1;" edge="1" parent="1" source="MgpkwVo8_xVV5x1iAArD-1" target="MgpkwVo8_xVV5x1iAArD-2">
          <mxGeometry relative="1" as="geometry" />
        </mxCell>
        <mxCell id="MgpkwVo8_xVV5x1iAArD-1" value="BẮT ĐẦU" style="ellipse;whiteSpace=wrap;html=1;" vertex="1" parent="1">
          <mxGeometry x="340" width="120" height="80" as="geometry" />
        </mxCell>
        <mxCell id="MgpkwVo8_xVV5x1iAArD-10" value="" style="edgeStyle=orthogonalEdgeStyle;rounded=0;orthogonalLoop=1;jettySize=auto;html=1;" edge="1" parent="1" source="MgpkwVo8_xVV5x1iAArD-2" target="MgpkwVo8_xVV5x1iAArD-7">
          <mxGeometry relative="1" as="geometry" />
        </mxCell>
        <mxCell id="MgpkwVo8_xVV5x1iAArD-2" value="NHẬP KÝ TỰ CHAR TỪ BÀN PHÍM" style="rounded=0;whiteSpace=wrap;html=1;" vertex="1" parent="1">
          <mxGeometry x="340" y="120" width="120" height="60" as="geometry" />
        </mxCell>
        <mxCell id="MgpkwVo8_xVV5x1iAArD-12" value="" style="edgeStyle=orthogonalEdgeStyle;rounded=0;orthogonalLoop=1;jettySize=auto;html=1;" edge="1" parent="1" source="MgpkwVo8_xVV5x1iAArD-3" target="MgpkwVo8_xVV5x1iAArD-4">
          <mxGeometry relative="1" as="geometry" />
        </mxCell>
        <mxCell id="MgpkwVo8_xVV5x1iAArD-3" value="K = CHAR - 30h" style="rounded=0;whiteSpace=wrap;html=1;" vertex="1" parent="1">
          <mxGeometry x="340" y="340" width="120" height="60" as="geometry" />
        </mxCell>
        <mxCell id="MgpkwVo8_xVV5x1iAArD-13" value="" style="edgeStyle=orthogonalEdgeStyle;rounded=0;orthogonalLoop=1;jettySize=auto;html=1;" edge="1" parent="1" source="MgpkwVo8_xVV5x1iAArD-4" target="MgpkwVo8_xVV5x1iAArD-9">
          <mxGeometry relative="1" as="geometry" />
        </mxCell>
        <mxCell id="MgpkwVo8_xVV5x1iAArD-4" value="&lt;font style=&quot;font-size: 11px;&quot;&gt;N = N * 10 + K&lt;/font&gt;" style="rounded=0;whiteSpace=wrap;html=1;" vertex="1" parent="1">
          <mxGeometry x="340" y="440" width="120" height="60" as="geometry" />
        </mxCell>
        <mxCell id="MgpkwVo8_xVV5x1iAArD-11" value="" style="edgeStyle=orthogonalEdgeStyle;rounded=0;orthogonalLoop=1;jettySize=auto;html=1;" edge="1" parent="1" source="MgpkwVo8_xVV5x1iAArD-7" target="MgpkwVo8_xVV5x1iAArD-3">
          <mxGeometry relative="1" as="geometry" />
        </mxCell>
        <mxCell id="MgpkwVo8_xVV5x1iAArD-7" value="PHÍM ENTER ? (CHAR = 13)" style="rhombus;whiteSpace=wrap;html=1;" vertex="1" parent="1">
          <mxGeometry x="340" y="220" width="120" height="80" as="geometry" />
        </mxCell>
        <mxCell id="MgpkwVo8_xVV5x1iAArD-8" value="KẾT THÚC" style="ellipse;whiteSpace=wrap;html=1;" vertex="1" parent="1">
          <mxGeometry x="540" y="360" width="120" height="80" as="geometry" />
        </mxCell>
        <mxCell id="MgpkwVo8_xVV5x1iAArD-9" value="NHẬP ĐỦ 2 KÝ TỰ ?" style="rhombus;whiteSpace=wrap;html=1;" vertex="1" parent="1">
          <mxGeometry x="340" y="540" width="120" height="80" as="geometry" />
        </mxCell>
        <mxCell id="MgpkwVo8_xVV5x1iAArD-14" value="" style="endArrow=classic;html=1;rounded=0;exitX=0;exitY=0.5;exitDx=0;exitDy=0;" edge="1" parent="1" source="MgpkwVo8_xVV5x1iAArD-9">
          <mxGeometry width="50" height="50" relative="1" as="geometry">
            <mxPoint x="400" y="400" as="sourcePoint" />
            <mxPoint x="400" y="110" as="targetPoint" />
            <Array as="points">
              <mxPoint x="240" y="580" />
              <mxPoint x="240" y="110" />
            </Array>
          </mxGeometry>
        </mxCell>
        <mxCell id="MgpkwVo8_xVV5x1iAArD-16" value="" style="endArrow=classic;html=1;rounded=0;exitX=1;exitY=0.5;exitDx=0;exitDy=0;entryX=0.5;entryY=0;entryDx=0;entryDy=0;" edge="1" parent="1" source="MgpkwVo8_xVV5x1iAArD-7" target="MgpkwVo8_xVV5x1iAArD-8">
          <mxGeometry width="50" height="50" relative="1" as="geometry">
            <mxPoint x="400" y="370" as="sourcePoint" />
            <mxPoint x="450" y="320" as="targetPoint" />
            <Array as="points">
              <mxPoint x="600" y="260" />
            </Array>
          </mxGeometry>
        </mxCell>
        <mxCell id="MgpkwVo8_xVV5x1iAArD-17" value="" style="endArrow=classic;html=1;rounded=0;exitX=1;exitY=0.5;exitDx=0;exitDy=0;entryX=0.5;entryY=1;entryDx=0;entryDy=0;" edge="1" parent="1" source="MgpkwVo8_xVV5x1iAArD-9" target="MgpkwVo8_xVV5x1iAArD-8">
          <mxGeometry width="50" height="50" relative="1" as="geometry">
            <mxPoint x="400" y="370" as="sourcePoint" />
            <mxPoint x="450" y="320" as="targetPoint" />
            <Array as="points">
              <mxPoint x="600" y="580" />
            </Array>
          </mxGeometry>
        </mxCell>
        <mxCell id="MgpkwVo8_xVV5x1iAArD-18" value="N lưu giá trị số khi nhập xong" style="text;html=1;strokeColor=none;fillColor=none;align=center;verticalAlign=middle;whiteSpace=wrap;rounded=0;" vertex="1" parent="1">
          <mxGeometry x="40" y="420" width="90" height="30" as="geometry" />
        </mxCell>
        <mxCell id="MgpkwVo8_xVV5x1iAArD-19" value="" style="endArrow=none;dashed=1;html=1;dashPattern=1 3;strokeWidth=2;rounded=0;exitX=1;exitY=0.75;exitDx=0;exitDy=0;entryX=0;entryY=0.5;entryDx=0;entryDy=0;" edge="1" parent="1" source="MgpkwVo8_xVV5x1iAArD-18" target="MgpkwVo8_xVV5x1iAArD-4">
          <mxGeometry width="50" height="50" relative="1" as="geometry">
            <mxPoint x="400" y="370" as="sourcePoint" />
            <mxPoint x="450" y="320" as="targetPoint" />
          </mxGeometry>
        </mxCell>
        <mxCell id="MgpkwVo8_xVV5x1iAArD-20" value="" style="endArrow=none;dashed=1;html=1;dashPattern=1 3;strokeWidth=2;rounded=0;exitX=0;exitY=0.5;exitDx=0;exitDy=0;" edge="1" parent="1" source="MgpkwVo8_xVV5x1iAArD-3" target="MgpkwVo8_xVV5x1iAArD-21">
          <mxGeometry width="50" height="50" relative="1" as="geometry">
            <mxPoint x="400" y="370" as="sourcePoint" />
            <mxPoint x="170" y="350" as="targetPoint" />
          </mxGeometry>
        </mxCell>
        <mxCell id="MgpkwVo8_xVV5x1iAArD-21" value="Lấy mã ascii của ký tự số - 30h sẽ ra giá trị số tương ứng" style="text;html=1;strokeColor=none;fillColor=none;align=center;verticalAlign=middle;whiteSpace=wrap;rounded=0;" vertex="1" parent="1">
          <mxGeometry x="40" y="320" width="110" height="30" as="geometry" />
        </mxCell>
        <mxCell id="MgpkwVo8_xVV5x1iAArD-22" value="Phím ENTER có mã ascii = 13" style="text;html=1;strokeColor=none;fillColor=none;align=center;verticalAlign=middle;whiteSpace=wrap;rounded=0;" vertex="1" parent="1">
          <mxGeometry x="620" y="130" width="100" height="30" as="geometry" />
        </mxCell>
        <mxCell id="MgpkwVo8_xVV5x1iAArD-23" value="" style="endArrow=none;dashed=1;html=1;dashPattern=1 3;strokeWidth=2;rounded=0;entryX=0;entryY=1;entryDx=0;entryDy=0;exitX=1;exitY=0;exitDx=0;exitDy=0;" edge="1" parent="1" source="MgpkwVo8_xVV5x1iAArD-7" target="MgpkwVo8_xVV5x1iAArD-22">
          <mxGeometry width="50" height="50" relative="1" as="geometry">
            <mxPoint x="400" y="370" as="sourcePoint" />
            <mxPoint x="450" y="320" as="targetPoint" />
          </mxGeometry>
        </mxCell>
        <mxCell id="MgpkwVo8_xVV5x1iAArD-24" value="Đ" style="text;html=1;strokeColor=none;fillColor=none;align=center;verticalAlign=middle;whiteSpace=wrap;rounded=0;" vertex="1" parent="1">
          <mxGeometry x="470" y="240" width="40" height="20" as="geometry" />
        </mxCell>
        <mxCell id="MgpkwVo8_xVV5x1iAArD-25" value="Đ" style="text;html=1;strokeColor=none;fillColor=none;align=center;verticalAlign=middle;whiteSpace=wrap;rounded=0;" vertex="1" parent="1">
          <mxGeometry x="480" y="560" width="40" height="20" as="geometry" />
        </mxCell>
        <mxCell id="MgpkwVo8_xVV5x1iAArD-26" value="S" style="text;html=1;strokeColor=none;fillColor=none;align=center;verticalAlign=middle;whiteSpace=wrap;rounded=0;" vertex="1" parent="1">
          <mxGeometry x="280" y="560" width="40" height="20" as="geometry" />
        </mxCell>
        <mxCell id="MgpkwVo8_xVV5x1iAArD-27" value="S" style="text;html=1;strokeColor=none;fillColor=none;align=center;verticalAlign=middle;whiteSpace=wrap;rounded=0;" vertex="1" parent="1">
          <mxGeometry x="390" y="310" width="40" height="20" as="geometry" />
        </mxCell>
        <mxCell id="MgpkwVo8_xVV5x1iAArD-33" value="" style="edgeStyle=orthogonalEdgeStyle;rounded=0;orthogonalLoop=1;jettySize=auto;html=1;" edge="1" parent="1" source="MgpkwVo8_xVV5x1iAArD-28" target="MgpkwVo8_xVV5x1iAArD-29">
          <mxGeometry relative="1" as="geometry" />
        </mxCell>
        <mxCell id="MgpkwVo8_xVV5x1iAArD-28" value="BẮT ĐẦU" style="ellipse;whiteSpace=wrap;html=1;" vertex="1" parent="1">
          <mxGeometry x="1220" y="-40" width="120" height="80" as="geometry" />
        </mxCell>
        <mxCell id="MgpkwVo8_xVV5x1iAArD-34" value="" style="edgeStyle=orthogonalEdgeStyle;rounded=0;orthogonalLoop=1;jettySize=auto;html=1;" edge="1" parent="1" source="MgpkwVo8_xVV5x1iAArD-29" target="MgpkwVo8_xVV5x1iAArD-30">
          <mxGeometry relative="1" as="geometry" />
        </mxCell>
        <mxCell id="MgpkwVo8_xVV5x1iAArD-29" value="NHẬP A" style="rounded=0;whiteSpace=wrap;html=1;" vertex="1" parent="1">
          <mxGeometry x="1220" y="80" width="120" height="60" as="geometry" />
        </mxCell>
        <mxCell id="MgpkwVo8_xVV5x1iAArD-35" value="" style="edgeStyle=orthogonalEdgeStyle;rounded=0;orthogonalLoop=1;jettySize=auto;html=1;" edge="1" parent="1" source="MgpkwVo8_xVV5x1iAArD-30" target="MgpkwVo8_xVV5x1iAArD-31">
          <mxGeometry relative="1" as="geometry" />
        </mxCell>
        <mxCell id="MgpkwVo8_xVV5x1iAArD-30" value="NHẬP B" style="rounded=0;whiteSpace=wrap;html=1;" vertex="1" parent="1">
          <mxGeometry x="1220" y="190" width="120" height="60" as="geometry" />
        </mxCell>
        <mxCell id="MgpkwVo8_xVV5x1iAArD-36" value="" style="edgeStyle=orthogonalEdgeStyle;rounded=0;orthogonalLoop=1;jettySize=auto;html=1;" edge="1" parent="1" source="MgpkwVo8_xVV5x1iAArD-31" target="MgpkwVo8_xVV5x1iAArD-32">
          <mxGeometry relative="1" as="geometry" />
        </mxCell>
        <mxCell id="MgpkwVo8_xVV5x1iAArD-31" value="SUM = A + B" style="rounded=0;whiteSpace=wrap;html=1;" vertex="1" parent="1">
          <mxGeometry x="1220" y="300" width="120" height="60" as="geometry" />
        </mxCell>
        <mxCell id="MgpkwVo8_xVV5x1iAArD-32" value="KẾT THÚC" style="ellipse;whiteSpace=wrap;html=1;" vertex="1" parent="1">
          <mxGeometry x="1220" y="400" width="120" height="80" as="geometry" />
        </mxCell>
      </root>
    </mxGraphModel>
  </diagram>
</mxfile>
